<?xml version="1.0" standalone="no"?>
<!DOCTYPE svg PUBLIC "-//W3C//DTD SVG 20010904//EN"
 "http://www.w3.org/TR/2001/REC-SVG-20010904/DTD/svg10.dtd">
<svg version="1.0" xmlns="http://www.w3.org/2000/svg"
 width="512.000000pt" height="512.000000pt" viewBox="0 0 512.000000 512.000000"
 preserveAspectRatio="xMidYMid meet">
<metadata>
Created by potrace 1.14, written by Peter Selinger 2001-2017
</metadata>
<g transform="translate(0.000000,512.000000) scale(0.100000,-0.100000)"
fill="#000000" stroke="none">
<path d="M1660 4460 c-421 -187 -783 -348 -805 -359 -22 -10 -114 -51 -205
-91 -91 -40 -175 -82 -188 -95 -13 -12 -26 -37 -30 -56 -4 -19 -7 -565 -6
-1215 0 -1181 0 -1181 21 -1210 17 -23 75 -53 270 -138 136 -61 280 -124 318
-142 39 -17 113 -51 165 -74 52 -23 109 -48 125 -55 128 -59 282 -127 290
-129 6 -2 41 -17 78 -34 38 -18 70 -32 72 -32 2 0 41 -17 87 -39 45 -21 117
-53 158 -71 41 -17 98 -42 125 -55 155 -71 288 -127 311 -131 19 -3 109 32
320 126 279 124 324 141 324 122 0 -11 113 -93 181 -131 245 -137 561 -155
826 -47 359 147 597 503 594 891 0 55 -3 110 -5 121 -2 12 -7 37 -10 55 -17
108 -80 260 -150 362 l-46 67 0 890 0 890 -27 29 c-21 22 -273 138 -999 460
-567 252 -983 431 -1000 431 -16 0 -372 -153 -794 -340z"/>
</g>
</svg>
